<svg width="13" height="14" viewBox="0 0 13 14" fill="none" xmlns="http://www.w3.org/2000/svg">
<path d="M0.3 8.5C0.3 6.73269 1.73269 5.3 3.5 5.3H9.5C11.2673 5.3 12.7 6.73269 12.7 8.5C12.7 10.2673 11.2673 11.7 9.5 11.7H3.5C1.73269 11.7 0.3 10.2673 0.3 8.5Z" fill="#008000" fill-opacity="0.1" stroke="#008000" stroke-width="0.6"/>
<path d="M4.32715 8.56641C4.32715 8.43359 4.37402 8.32227 4.46777 8.23242C4.56348 8.14258 4.6875 8.09766 4.83984 8.09766C4.99414 8.09766 5.11719 8.14258 5.20898 8.23242C5.30273 8.32227 5.34961 8.43359 5.34961 8.56641C5.34961 8.69727 5.30273 8.80762 5.20898 8.89746C5.11719 8.9873 4.99414 9.03223 4.83984 9.03223C4.6875 9.03223 4.56348 8.9873 4.46777 8.89746C4.37402 8.80762 4.32715 8.69727 4.32715 8.56641ZM6.1684 8.56641C6.1684 8.43359 6.21527 8.32227 6.30902 8.23242C6.40473 8.14258 6.52875 8.09766 6.68109 8.09766C6.83539 8.09766 6.95844 8.14258 7.05023 8.23242C7.14398 8.32227 7.19086 8.43359 7.19086 8.56641C7.19086 8.69727 7.14398 8.80762 7.05023 8.89746C6.95844 8.9873 6.83539 9.03223 6.68109 9.03223C6.52875 9.03223 6.40473 8.9873 6.30902 8.89746C6.21527 8.80762 6.1684 8.69727 6.1684 8.56641ZM8.00965 8.56641C8.00965 8.43359 8.05652 8.32227 8.15027 8.23242C8.24598 8.14258 8.37 8.09766 8.52234 8.09766C8.67664 8.09766 8.79969 8.14258 8.89148 8.23242C8.98523 8.32227 9.03211 8.43359 9.03211 8.56641C9.03211 8.69727 8.98523 8.80762 8.89148 8.89746C8.79969 8.9873 8.67664 9.03223 8.52234 9.03223C8.37 9.03223 8.24598 8.9873 8.15027 8.89746C8.05652 8.80762 8.00965 8.69727 8.00965 8.56641Z" fill="black"/>
</svg>
